<svg viewBox="0 0 64 64" xmlns="http://www.w3.org/2000/svg"><circle cx="24.5" cy="26.5" fill="#eaeaea" r="21.5"/><path d="m6 9.463v1.415" fill="none" stroke="#4c241d" stroke-linecap="round" stroke-linejoin="round" stroke-width="2"/><path d="m6 15.122v1.415" fill="none" stroke="#4c241d" stroke-linecap="round" stroke-linejoin="round" stroke-width="2"/><path d="m2.463 13h1.415" fill="none" stroke="#4c241d" stroke-linecap="round" stroke-linejoin="round" stroke-width="2"/><path d="m8.122 13h1.415" fill="none" stroke="#4c241d" stroke-linecap="round" stroke-linejoin="round" stroke-width="2"/><circle cx="17.5" cy="6.5" fill="#4c241d" r="1.069"/><g stroke="#4c241d" stroke-linecap="round" stroke-linejoin="round" stroke-width="2"><path d="m25 54h30a3 3 0 0 1 3 3 3 3 0 0 1 -3 3h-30a0 0 0 0 1 0 0v-6a0 0 0 0 1 0 0z" fill="#ffce56"/><path d="m23 48h30a3 3 0 0 1 3 3 3 3 0 0 1 -3 3h-30a0 0 0 0 1 0 0v-6a0 0 0 0 1 0 0z" fill="#ffce56"/><path d="m25 42h30a3 3 0 0 1 3 3 3 3 0 0 1 -3 3h-30a0 0 0 0 1 0 0v-6a0 0 0 0 1 0 0z" fill="#ffce56"/><path d="m24 36h30a3 3 0 0 1 3 3 3 3 0 0 1 -3 3h-30a0 0 0 0 1 0 0v-6a0 0 0 0 1 0 0z" fill="#ffce56"/><path d="m21 30h30a3 3 0 0 1 3 3 3 3 0 0 1 -3 3h-30a0 0 0 0 1 0 0v-6a0 0 0 0 1 0 0z" fill="#ffce56"/><path d="m23 24h30a3 3 0 0 1 3 3 3 3 0 0 1 -3 3h-30a0 0 0 0 1 0 0v-6a0 0 0 0 1 0 0z" fill="#ffce56"/><path d="m29 18h27a3 3 0 0 1 3 3 3 3 0 0 1 -3 3h-30a0 0 0 0 1 0 0v-3a3 3 0 0 1 3-3z" fill="#ffce56"/><rect fill="#ffce56" height="6" rx="3" width="33" x="20" y="12"/><circle cx="25" cy="41" fill="#ffce56" r="19"/><circle cx="25" cy="41" fill="none" r="14" stroke-dasharray="3.997344 3.997344"/><path d="m27.737 35.007a2 2 0 0 0 -1.737-1.007h-.706a3.294 3.294 0 0 0 -3.294 3.294l.454 2.591c1.546 3.115-.798 4.146-1.454 6.115h8v-2" fill="none"/><path d="m21 40h4" fill="none"/></g></svg>