<?xml version="1.0" encoding="UTF-8"?>
<svg xmlns="http://www.w3.org/2000/svg" version="1.1" width="300" height="300" viewBox="0 0 300 300"><rect x="0" y="0" width="300" height="300" fill="#ffffff"/><g transform="scale(10.345)"><g transform="translate(0,0)"><path fill-rule="evenodd" d="M8 0L8 4L10 4L10 3L11 3L11 4L12 4L12 2L11 2L11 0ZM12 0L12 1L13 1L13 0ZM14 0L14 1L16 1L16 3L15 3L15 2L14 2L14 3L13 3L13 5L11 5L11 6L10 6L10 7L9 7L9 5L8 5L8 7L9 7L9 8L10 8L10 7L11 7L11 6L12 6L12 8L11 8L11 9L9 9L9 10L6 10L6 9L7 9L7 8L4 8L4 9L2 9L2 8L0 8L0 9L2 9L2 10L3 10L3 11L2 11L2 12L0 12L0 13L1 13L1 14L0 14L0 16L2 16L2 17L0 17L0 18L2 18L2 19L3 19L3 21L4 21L4 20L5 20L5 19L7 19L7 18L6 18L6 17L7 17L7 16L8 16L8 18L11 18L11 19L8 19L8 20L6 20L6 21L8 21L8 22L9 22L9 21L8 21L8 20L12 20L12 21L13 21L13 22L14 22L14 21L15 21L15 23L14 23L14 25L13 25L13 23L12 23L12 24L10 24L10 23L11 23L11 22L10 22L10 23L8 23L8 25L10 25L10 26L9 26L9 27L8 27L8 29L12 29L12 26L13 26L13 27L16 27L16 29L18 29L18 28L19 28L19 29L22 29L22 28L24 28L24 29L25 29L25 27L26 27L26 26L27 26L27 29L28 29L28 28L29 28L29 17L28 17L28 16L29 16L29 13L28 13L28 12L29 12L29 8L25 8L25 9L24 9L24 8L23 8L23 9L22 9L22 10L23 10L23 13L20 13L20 12L19 12L19 11L18 11L18 10L19 10L19 9L20 9L20 10L21 10L21 9L20 9L20 8L19 8L19 9L18 9L18 7L19 7L19 6L20 6L20 7L21 7L21 4L20 4L20 3L21 3L21 2L20 2L20 1L19 1L19 0L18 0L18 2L17 2L17 0ZM9 2L9 3L10 3L10 2ZM17 3L17 7L18 7L18 5L20 5L20 4L18 4L18 3ZM14 4L14 6L13 6L13 8L12 8L12 9L11 9L11 10L9 10L9 11L8 11L8 13L9 13L9 14L7 14L7 13L5 13L5 11L6 11L6 12L7 12L7 11L6 11L6 10L5 10L5 9L4 9L4 10L5 10L5 11L4 11L4 12L3 12L3 13L5 13L5 14L4 14L4 15L3 15L3 14L2 14L2 15L3 15L3 16L5 16L5 17L6 17L6 16L7 16L7 15L8 15L8 16L9 16L9 17L10 17L10 16L12 16L12 17L11 17L11 18L12 18L12 17L13 17L13 18L14 18L14 16L15 16L15 17L17 17L17 18L16 18L16 19L15 19L15 20L16 20L16 24L15 24L15 25L14 25L14 26L15 26L15 25L17 25L17 22L20 22L20 20L21 20L21 19L22 19L22 20L26 20L26 21L25 21L25 22L27 22L27 23L25 23L25 25L24 25L24 27L25 27L25 25L27 25L27 26L28 26L28 25L27 25L27 23L28 23L28 20L27 20L27 19L28 19L28 18L27 18L27 15L28 15L28 14L27 14L27 11L28 11L28 10L24 10L24 9L23 9L23 10L24 10L24 13L23 13L23 14L24 14L24 13L26 13L26 14L25 14L25 16L24 16L24 15L23 15L23 16L21 16L21 14L20 14L20 13L19 13L19 16L18 16L18 17L17 17L17 15L18 15L18 14L17 14L17 15L16 15L16 16L15 16L15 15L14 15L14 14L15 14L15 11L12 11L12 12L11 12L11 13L10 13L10 11L11 11L11 10L12 10L12 9L13 9L13 10L14 10L14 9L16 9L16 5L15 5L15 4ZM14 6L14 8L15 8L15 6ZM0 10L0 11L1 11L1 10ZM16 10L16 11L17 11L17 10ZM21 11L21 12L22 12L22 11ZM12 12L12 13L13 13L13 14L14 14L14 13L13 13L13 12ZM16 12L16 13L17 13L17 12ZM5 14L5 15L7 15L7 14ZM10 14L10 15L9 15L9 16L10 16L10 15L11 15L11 14ZM26 14L26 15L27 15L27 14ZM12 15L12 16L13 16L13 15ZM19 16L19 17L20 17L20 18L21 18L21 17L20 17L20 16ZM25 16L25 17L24 17L24 19L27 19L27 18L25 18L25 17L26 17L26 16ZM2 17L2 18L3 18L3 19L4 19L4 18L3 18L3 17ZM22 17L22 18L23 18L23 17ZM12 19L12 20L13 20L13 21L14 21L14 19ZM17 19L17 21L18 21L18 20L19 20L19 19ZM0 20L0 21L2 21L2 20ZM21 21L21 24L24 24L24 21ZM22 22L22 23L23 23L23 22ZM18 23L18 25L19 25L19 24L20 24L20 23ZM11 25L11 26L10 26L10 28L11 28L11 26L12 26L12 25ZM20 25L20 26L19 26L19 27L20 27L20 26L21 26L21 27L23 27L23 25ZM17 26L17 27L18 27L18 26ZM14 28L14 29L15 29L15 28ZM0 0L0 7L7 7L7 0ZM1 1L1 6L6 6L6 1ZM2 2L2 5L5 5L5 2ZM22 0L22 7L29 7L29 0ZM23 1L23 6L28 6L28 1ZM24 2L24 5L27 5L27 2ZM0 22L0 29L7 29L7 22ZM1 23L1 28L6 28L6 23ZM2 24L2 27L5 27L5 24Z" fill="#c01a86"/></g></g></svg>
