<?xml version="1.0" encoding="UTF-8"?>
<svg xmlns="http://www.w3.org/2000/svg" version="1.1" width="300" height="300" viewBox="0 0 300 300"><rect x="0" y="0" width="300" height="300" fill="#ffffff"/><g transform="scale(10.345)"><g transform="translate(0,0)"><path fill-rule="evenodd" d="M10 0L10 2L11 2L11 0ZM12 0L12 1L13 1L13 2L12 2L12 4L13 4L13 5L11 5L11 6L10 6L10 4L11 4L11 3L8 3L8 4L9 4L9 5L8 5L8 7L9 7L9 8L6 8L6 9L5 9L5 8L0 8L0 10L2 10L2 11L0 11L0 12L2 12L2 13L5 13L5 14L6 14L6 15L4 15L4 14L2 14L2 15L1 15L1 14L0 14L0 16L2 16L2 15L4 15L4 17L0 17L0 21L1 21L1 18L3 18L3 19L4 19L4 17L5 17L5 19L7 19L7 20L6 20L6 21L7 21L7 20L10 20L10 25L9 25L9 24L8 24L8 29L11 29L11 27L10 27L10 28L9 28L9 26L11 26L11 25L12 25L12 26L13 26L13 27L12 27L12 29L13 29L13 28L14 28L14 29L19 29L19 28L21 28L21 27L22 27L22 28L23 28L23 29L25 29L25 28L26 28L26 29L27 29L27 28L28 28L28 26L29 26L29 25L27 25L27 24L29 24L29 23L28 23L28 22L29 22L29 21L28 21L28 20L29 20L29 19L27 19L27 18L26 18L26 17L27 17L27 16L26 16L26 15L28 15L28 17L29 17L29 15L28 15L28 14L29 14L29 13L28 13L28 12L25 12L25 11L27 11L27 10L29 10L29 9L28 9L28 8L27 8L27 10L25 10L25 9L26 9L26 8L25 8L25 9L24 9L24 8L23 8L23 9L22 9L22 8L21 8L21 5L20 5L20 4L21 4L21 3L19 3L19 2L18 2L18 3L17 3L17 4L16 4L16 3L15 3L15 2L17 2L17 0L16 0L16 1L15 1L15 2L14 2L14 1L13 1L13 0ZM18 0L18 1L21 1L21 0ZM8 1L8 2L9 2L9 1ZM13 2L13 3L14 3L14 4L15 4L15 5L13 5L13 7L12 7L12 6L11 6L11 7L12 7L12 9L11 9L11 8L10 8L10 9L9 9L9 10L8 10L8 11L9 11L9 12L11 12L11 13L10 13L10 14L9 14L9 13L6 13L6 14L7 14L7 15L6 15L6 16L8 16L8 14L9 14L9 15L10 15L10 14L13 14L13 15L12 15L12 17L11 17L11 16L10 16L10 19L11 19L11 22L13 22L13 23L12 23L12 25L15 25L15 26L16 26L16 25L17 25L17 28L19 28L19 27L18 27L18 25L19 25L19 26L20 26L20 27L21 27L21 25L20 25L20 23L19 23L19 21L20 21L20 20L21 20L21 18L22 18L22 17L23 17L23 19L22 19L22 20L23 20L23 19L24 19L24 17L26 17L26 16L25 16L25 15L26 15L26 14L28 14L28 13L25 13L25 12L24 12L24 11L25 11L25 10L24 10L24 9L23 9L23 10L24 10L24 11L22 11L22 13L20 13L20 10L22 10L22 9L21 9L21 8L20 8L20 5L19 5L19 8L20 8L20 10L19 10L19 9L15 9L15 7L16 7L16 8L18 8L18 6L17 6L17 5L18 5L18 4L19 4L19 3L18 3L18 4L17 4L17 5L16 5L16 4L15 4L15 3L14 3L14 2ZM15 5L15 6L14 6L14 7L15 7L15 6L16 6L16 7L17 7L17 6L16 6L16 5ZM9 6L9 7L10 7L10 6ZM2 9L2 10L4 10L4 11L2 11L2 12L7 12L7 11L5 11L5 9ZM6 9L6 10L7 10L7 9ZM10 9L10 11L11 11L11 9ZM12 9L12 10L13 10L13 11L12 11L12 13L13 13L13 12L14 12L14 13L16 13L16 14L15 14L15 15L14 15L14 16L15 16L15 17L12 17L12 18L13 18L13 19L12 19L12 21L13 21L13 20L14 20L14 21L16 21L16 22L15 22L15 23L14 23L14 24L15 24L15 25L16 25L16 24L17 24L17 25L18 25L18 24L19 24L19 23L18 23L18 24L17 24L17 21L19 21L19 20L20 20L20 19L19 19L19 18L20 18L20 17L22 17L22 15L23 15L23 16L24 16L24 15L25 15L25 13L24 13L24 12L23 12L23 13L22 13L22 14L20 14L20 13L19 13L19 12L17 12L17 11L16 11L16 10L14 10L14 9ZM18 10L18 11L19 11L19 10ZM14 11L14 12L16 12L16 13L17 13L17 12L16 12L16 11ZM23 13L23 14L24 14L24 13ZM17 14L17 16L18 16L18 17L15 17L15 18L16 18L16 19L17 19L17 20L16 20L16 21L17 21L17 20L19 20L19 19L18 19L18 17L19 17L19 16L21 16L21 15L20 15L20 14ZM15 15L15 16L16 16L16 15ZM6 17L6 18L7 18L7 19L8 19L8 17ZM25 18L25 20L27 20L27 19L26 19L26 18ZM14 19L14 20L15 20L15 19ZM8 21L8 23L9 23L9 21ZM21 21L21 24L24 24L24 21ZM25 21L25 22L26 22L26 23L25 23L25 24L27 24L27 22L28 22L28 21ZM22 22L22 23L23 23L23 22ZM22 25L22 26L23 26L23 28L25 28L25 27L24 27L24 26L25 26L25 25L24 25L24 26L23 26L23 25ZM26 25L26 26L27 26L27 25ZM14 27L14 28L16 28L16 27ZM26 27L26 28L27 28L27 27ZM0 0L0 7L7 7L7 0ZM1 1L1 6L6 6L6 1ZM2 2L2 5L5 5L5 2ZM22 0L22 7L29 7L29 0ZM23 1L23 6L28 6L28 1ZM24 2L24 5L27 5L27 2ZM0 22L0 29L7 29L7 22ZM1 23L1 28L6 28L6 23ZM2 24L2 27L5 27L5 24Z" fill="#c01a86"/></g></g></svg>
